<svg   id="chart"   width="70"   height="40"   viewBox="0 0 700 400"   xmlns="http://www.w3.org/2000/svg" >     		     <path d="  M0,40  h8  v-29.666932140249706  q0,-4 -4,-4  h-0  q-4,0 -4,4  Z" fill="#5b73e8" /> <path d="  M10,40  h8  v-19.33750436813958  q0,-4 -4,-4  h-0  q-4,0 -4,4  Z" fill="#5b73e8" /> <path d="  M20,40  h8  v-29.808009083845114  q0,-4 -4,-4  h-0  q-4,0 -4,4  Z" fill="#5b73e8" /> <path d="  M30,40  h8  v-26.675073914898476  q0,-4 -4,-4  h-0  q-4,0 -4,4  Z" fill="#5b73e8" /> <path d="  M40,40  h8  v-12.934451675575453  q0,-4 -4,-4  h-0  q-4,0 -4,4  Z" fill="#5b73e8" /> <path d="  M50,40  h8  v-29.95041187514486  q0,-4 -4,-4  h-0  q-4,0 -4,4  Z" fill="#5b73e8" /> <path d="  M60,40  h8  v-14.09243352092723  q0,-4 -4,-4  h-0  q-4,0 -4,4  Z" fill="#5b73e8" /> </svg>