<svg xmlns="http://www.w3.org/2000/svg" xmlns:xlink="http://www.w3.org/1999/xlink" viewBox="0 0 702.1 169.64"><defs><style>.cls-1{fill:#474747;}.cls-2{fill:#8faaf7;}.cls-3{fill:url(#Безымянный_градиент_5);}.cls-4{fill:url(#Безымянный_градиент_5-2);}.cls-5{fill:#fff;}</style><linearGradient id="Безымянный_градиент_5" x1="42.06" y1="38.74" x2="119.54" y2="38.74" gradientUnits="userSpaceOnUse"><stop offset="0" stop-color="#5c73e6"/><stop offset="1" stop-color="#766acb"/></linearGradient><linearGradient id="Безымянный_градиент_5-2" x1="5.44" y1="85.96" x2="154.37" y2="85.96" xlink:href="#Безымянный_градиент_5"/></defs><g id="Слой_2" data-name="Слой 2"><g id="Слой_1-2" data-name="Слой 1"><path class="cls-1" d="M197.21,86.81c0-5.27,0-10.89-.07-15.7h23.38c.29,1.84.43,4.41.54,6.19,3.23-3.9,9.21-7.72,18.12-7.72,10.49,0,15,4.07,17.38,8.36,3.11-3.59,8.91-8.36,19.7-8.36,13.24,0,22.15,7.53,22.15,24V128.5H274.53V94.94c0-4.37-1.22-9-6.89-9-4.95,0-7.72,3.12-7.72,10.57v32h-24v-34c0-4.13-1.2-8.8-6.92-8.8-5.3,0-7.75,3.6-7.75,10.65V128.5h-24Z"/><path class="cls-1" d="M311.74,51.5h39c27.78,0,41.86,17,41.86,37.27,0,23.78-17.39,39.73-42.1,39.73H311.74Zm25.05,59.69H347.6c12.4,0,18.59-7.47,18.59-21.84,0-11.81-4.91-20.47-18.56-20.61H336.79Z"/><path class="cls-1" d="M472.2,99.73c0,18.11-12.52,30.3-35.76,30.3C412.3,130,402,114.84,402,99.84c0-16.16,11.44-30.26,35.17-30.26C461.37,69.58,472.2,85.44,472.2,99.73Zm-45.54,0c0,9,3.41,15,10.4,15s10.18-5.93,10.18-14.64c0-8.92-2.72-15.23-10.29-15.23C429.9,84.87,426.66,90.56,426.66,99.69Z"/><path class="cls-1" d="M507,93.47c5.08-6.48,12.79-14.92,18.69-22.36h27.84L531.68,92.63c2.66,4.73,21.69,31.6,24,35.87H526.75c-.54-2.08-11.79-20.77-12.29-22.34l-7.42,6.9V128.5H482.71V47.63H507Z"/><path class="cls-1" d="M626,99.73c0,18.11-12.51,30.3-35.75,30.3-24.14,0-34.44-15.19-34.44-30.19,0-16.16,11.44-30.26,35.17-30.26C615.18,69.58,626,85.44,626,99.73Zm-45.53,0c0,9,3.41,15,10.4,15s10.18-5.93,10.18-14.64c0-8.92-2.72-15.23-10.29-15.23C583.71,84.87,580.47,90.56,580.47,99.69Z"/><path class="cls-1" d="M636.52,86c0-5,0-11.17-.11-14.91H660.3c.26,1.57.44,4.67.55,6.33,2.62-3.34,7.93-7.86,18.73-7.86,14.46,0,22.52,8.75,22.52,23.51V128.5H677.59V95.42c0-5.18-1.91-9.43-7.78-9.43s-8.89,3.77-8.89,12.51v30h-24.4Z"/><path class="cls-2" d="M106.3,169.11,7.64,135.8a11.9,11.9,0,0,1-7.49-13L17.74,17c1.53-9.22,8.33-15.1,15.14-12.8L166,49.12c6.8,2.3,8.65,11.09,4.27,19.36l-50.2,94.87C117.49,168.29,111.34,170.82,106.3,169.11Z"/><path class="cls-3" d="M80.8,0a38.74,38.74,0,1,0,38.74,38.74A38.74,38.74,0,0,0,80.8,0Zm0,69.83a30.72,30.72,0,1,1,30.72-30.72A30.73,30.73,0,0,1,80.8,69.83Z"/><path class="cls-4" d="M127.89,147.16h-96a11,11,0,0,1-10.36-9.11L5.7,40.41C4.32,31.9,8.53,24.77,15.14,24.77H144.67c6.61,0,10.82,7.13,9.44,15.64l-15.87,97.64A11,11,0,0,1,127.89,147.16Z"/><path class="cls-5" d="M114.06,81.32H95.39V61.15a5.72,5.72,0,0,0-.65-3.22A2.7,2.7,0,0,0,92.4,57q-3.15,0-3.15,4.16V81.32H70.59V61.15a5.61,5.61,0,0,0-.67-3.22,2.78,2.78,0,0,0-2.37-.9q-3.1,0-3.1,4.16V81.32H45.79v-23q0-6.28,5.64-10.7A21.5,21.5,0,0,1,65.1,43.2,23.28,23.28,0,0,1,80,48.44q7.34-5.23,14.67-5.24,9.35,0,15,5.09,4.44,4,4.44,11.59Z"/><path class="cls-5" d="M94.17,100.79H45.8v-11h67.85v14.36a17,17,0,0,1-7.85,14.8q-9.4,6.34-25.5,6.35-15.42,0-25.15-5.43c-6.5-3.62-9.31-7.89-9.31-13.59,0-.67-.17-4,0-5.47H65.53v3.56q0,9.63,14.77,9.64,13.86,0,13.87-9.48Z"/></g></g></svg>